<mxfile host="app.diagrams.net" agent="Mozilla/5.0 (X11; Linux x86_64; rv:136.0) Gecko/20100101 Firefox/136.0" version="26.1.1">
  <diagram id="R2lEEEUBdFMjLlhIrx00" name="Page-1">
    <mxGraphModel dx="2284" dy="1849" grid="1" gridSize="10" guides="1" tooltips="1" connect="1" arrows="1" fold="1" page="1" pageScale="1" pageWidth="850" pageHeight="1100" math="0" shadow="0" extFonts="Permanent Marker^https://fonts.googleapis.com/css?family=Permanent+Marker">
      <root>
        <mxCell id="0" />
        <mxCell id="1" parent="0" />
        <mxCell id="mFw1grw2prYpKOJhhqOg-17" style="edgeStyle=orthogonalEdgeStyle;rounded=0;orthogonalLoop=1;jettySize=auto;html=1;exitX=1;exitY=0.5;exitDx=0;exitDy=0;entryX=0;entryY=0.5;entryDx=0;entryDy=0;endArrow=none;startFill=0;" parent="1" source="tiuHzOZxncWmr6rSsbrK-13" target="mFw1grw2prYpKOJhhqOg-6" edge="1">
          <mxGeometry relative="1" as="geometry" />
        </mxCell>
        <mxCell id="mFw1grw2prYpKOJhhqOg-19" value="(1, N)" style="edgeLabel;html=1;align=center;verticalAlign=middle;resizable=0;points=[];" parent="mFw1grw2prYpKOJhhqOg-17" vertex="1" connectable="0">
          <mxGeometry x="-0.0522" y="2" relative="1" as="geometry">
            <mxPoint as="offset" />
          </mxGeometry>
        </mxCell>
        <mxCell id="UCKfF-TqxiNILDHu4gQj-16" style="edgeStyle=orthogonalEdgeStyle;rounded=0;orthogonalLoop=1;jettySize=auto;html=1;exitX=0.5;exitY=1;exitDx=0;exitDy=0;" parent="1" source="tiuHzOZxncWmr6rSsbrK-13" target="mFw1grw2prYpKOJhhqOg-30" edge="1">
          <mxGeometry relative="1" as="geometry" />
        </mxCell>
        <mxCell id="tiuHzOZxncWmr6rSsbrK-13" value="Paciente" style="swimlane;whiteSpace=wrap;html=1;fontSize=14;" parent="1" vertex="1">
          <mxGeometry x="123" y="180" width="219.07" height="200" as="geometry" />
        </mxCell>
        <mxCell id="tiuHzOZxncWmr6rSsbrK-14" value="&lt;b&gt;dpi_paciente: int&lt;/b&gt;" style="text;html=1;align=center;verticalAlign=middle;resizable=0;points=[];autosize=1;strokeColor=none;fillColor=none;fontSize=14;fontStyle=4" parent="tiuHzOZxncWmr6rSsbrK-13" vertex="1">
          <mxGeometry x="43.129999999999995" y="20" width="130" height="30" as="geometry" />
        </mxCell>
        <mxCell id="tiuHzOZxncWmr6rSsbrK-17" value="nombre: varchar(100)" style="text;html=1;align=center;verticalAlign=middle;resizable=0;points=[];autosize=1;strokeColor=none;fillColor=none;fontSize=14;fontStyle=0" parent="tiuHzOZxncWmr6rSsbrK-13" vertex="1">
          <mxGeometry x="28.13" y="40" width="160" height="30" as="geometry" />
        </mxCell>
        <mxCell id="tiuHzOZxncWmr6rSsbrK-27" value="foto: varchar(255)" style="text;html=1;align=center;verticalAlign=middle;resizable=0;points=[];autosize=1;strokeColor=none;fillColor=none;fontSize=14;fontStyle=0" parent="tiuHzOZxncWmr6rSsbrK-13" vertex="1">
          <mxGeometry x="43.13" y="80" width="130" height="30" as="geometry" />
        </mxCell>
        <mxCell id="tiuHzOZxncWmr6rSsbrK-28" value="no_aseguradora: varchar(150)" style="text;html=1;align=center;verticalAlign=middle;resizable=0;points=[];autosize=1;strokeColor=none;fillColor=none;fontSize=14;fontStyle=0" parent="tiuHzOZxncWmr6rSsbrK-13" vertex="1">
          <mxGeometry x="3.13" y="100" width="210" height="30" as="geometry" />
        </mxCell>
        <mxCell id="mFw1grw2prYpKOJhhqOg-1" value="f_nacimiento: date" style="text;html=1;align=center;verticalAlign=middle;resizable=0;points=[];autosize=1;strokeColor=none;fillColor=none;fontSize=14;fontStyle=0" parent="tiuHzOZxncWmr6rSsbrK-13" vertex="1">
          <mxGeometry x="38.129999999999995" y="60" width="140" height="30" as="geometry" />
        </mxCell>
        <mxCell id="tiuHzOZxncWmr6rSsbrK-29" value="plan_aseguranza: varchar(150)" style="text;html=1;align=center;verticalAlign=middle;resizable=0;points=[];autosize=1;strokeColor=none;fillColor=none;fontSize=14;fontStyle=0" parent="tiuHzOZxncWmr6rSsbrK-13" vertex="1">
          <mxGeometry x="-1.8700000000000045" y="120" width="220" height="30" as="geometry" />
        </mxCell>
        <mxCell id="mFw1grw2prYpKOJhhqOg-4" value="direccion: varchar(150)" style="text;html=1;align=center;verticalAlign=middle;resizable=0;points=[];autosize=1;strokeColor=none;fillColor=none;fontSize=14;fontStyle=0" parent="tiuHzOZxncWmr6rSsbrK-13" vertex="1">
          <mxGeometry x="24.069999999999993" y="140" width="170" height="30" as="geometry" />
        </mxCell>
        <mxCell id="mFw1grw2prYpKOJhhqOg-5" value="telefono: int" style="text;html=1;align=center;verticalAlign=middle;resizable=0;points=[];autosize=1;strokeColor=none;fillColor=none;fontSize=14;fontStyle=0" parent="tiuHzOZxncWmr6rSsbrK-13" vertex="1">
          <mxGeometry x="58.129999999999995" y="160" width="100" height="30" as="geometry" />
        </mxCell>
        <mxCell id="mFw1grw2prYpKOJhhqOg-42" style="edgeStyle=orthogonalEdgeStyle;rounded=0;orthogonalLoop=1;jettySize=auto;html=1;exitX=0.5;exitY=1;exitDx=0;exitDy=0;entryX=0.5;entryY=0;entryDx=0;entryDy=0;" parent="1" source="mFw1grw2prYpKOJhhqOg-6" target="mFw1grw2prYpKOJhhqOg-21" edge="1">
          <mxGeometry relative="1" as="geometry" />
        </mxCell>
        <mxCell id="mFw1grw2prYpKOJhhqOg-43" value="(1, 1)" style="edgeLabel;html=1;align=center;verticalAlign=middle;resizable=0;points=[];" parent="mFw1grw2prYpKOJhhqOg-42" vertex="1" connectable="0">
          <mxGeometry x="-0.0889" y="2" relative="1" as="geometry">
            <mxPoint as="offset" />
          </mxGeometry>
        </mxCell>
        <mxCell id="I6eoGeikimtKOYhnClV8-75" style="edgeStyle=orthogonalEdgeStyle;rounded=0;orthogonalLoop=1;jettySize=auto;html=1;exitX=1;exitY=0.5;exitDx=0;exitDy=0;entryX=0;entryY=0.5;entryDx=0;entryDy=0;" edge="1" parent="1" source="mFw1grw2prYpKOJhhqOg-6" target="UCKfF-TqxiNILDHu4gQj-3">
          <mxGeometry relative="1" as="geometry" />
        </mxCell>
        <mxCell id="I6eoGeikimtKOYhnClV8-76" value="(1,N)" style="edgeLabel;html=1;align=center;verticalAlign=middle;resizable=0;points=[];" vertex="1" connectable="0" parent="I6eoGeikimtKOYhnClV8-75">
          <mxGeometry x="0.0147" y="2" relative="1" as="geometry">
            <mxPoint as="offset" />
          </mxGeometry>
        </mxCell>
        <mxCell id="mFw1grw2prYpKOJhhqOg-6" value="Cita" style="swimlane;whiteSpace=wrap;html=1;fontSize=14;startSize=23;" parent="1" vertex="1">
          <mxGeometry x="586" y="100" width="219.07" height="240" as="geometry" />
        </mxCell>
        <mxCell id="mFw1grw2prYpKOJhhqOg-7" value="&lt;b&gt;id_cita: int&lt;/b&gt;" style="text;html=1;align=center;verticalAlign=middle;resizable=0;points=[];autosize=1;strokeColor=none;fillColor=none;fontSize=14;fontStyle=4" parent="mFw1grw2prYpKOJhhqOg-6" vertex="1">
          <mxGeometry x="63.129999999999995" y="20" width="90" height="30" as="geometry" />
        </mxCell>
        <mxCell id="mFw1grw2prYpKOJhhqOg-8" value="*dpi_paciente: int" style="text;html=1;align=center;verticalAlign=middle;resizable=0;points=[];autosize=1;strokeColor=none;fillColor=none;fontSize=14;fontStyle=0" parent="mFw1grw2prYpKOJhhqOg-6" vertex="1">
          <mxGeometry x="43.129999999999995" y="40" width="130" height="30" as="geometry" />
        </mxCell>
        <mxCell id="mFw1grw2prYpKOJhhqOg-9" value="f_cita: date" style="text;html=1;align=center;verticalAlign=middle;resizable=0;points=[];autosize=1;strokeColor=none;fillColor=none;fontSize=14;fontStyle=0" parent="mFw1grw2prYpKOJhhqOg-6" vertex="1">
          <mxGeometry x="63.13" y="80" width="90" height="30" as="geometry" />
        </mxCell>
        <mxCell id="mFw1grw2prYpKOJhhqOg-10" value="hora_cita: time" style="text;html=1;align=center;verticalAlign=middle;resizable=0;points=[];autosize=1;strokeColor=none;fillColor=none;fontSize=14;fontStyle=0" parent="mFw1grw2prYpKOJhhqOg-6" vertex="1">
          <mxGeometry x="48.13" y="100" width="120" height="30" as="geometry" />
        </mxCell>
        <mxCell id="mFw1grw2prYpKOJhhqOg-11" value="*id_doctor: int" style="text;html=1;align=center;verticalAlign=middle;resizable=0;points=[];autosize=1;strokeColor=none;fillColor=none;fontSize=14;fontStyle=0" parent="mFw1grw2prYpKOJhhqOg-6" vertex="1">
          <mxGeometry x="53.129999999999995" y="60" width="110" height="30" as="geometry" />
        </mxCell>
        <mxCell id="mFw1grw2prYpKOJhhqOg-12" value="motivo: varchar(255)" style="text;html=1;align=center;verticalAlign=middle;resizable=0;points=[];autosize=1;strokeColor=none;fillColor=none;fontSize=14;fontStyle=0" parent="mFw1grw2prYpKOJhhqOg-6" vertex="1">
          <mxGeometry x="33.129999999999995" y="120" width="150" height="30" as="geometry" />
        </mxCell>
        <mxCell id="mFw1grw2prYpKOJhhqOg-13" value="asegurado: bool" style="text;html=1;align=center;verticalAlign=middle;resizable=0;points=[];autosize=1;strokeColor=none;fillColor=none;fontSize=14;fontStyle=0" parent="mFw1grw2prYpKOJhhqOg-6" vertex="1">
          <mxGeometry x="49.06999999999999" y="140" width="120" height="30" as="geometry" />
        </mxCell>
        <mxCell id="mFw1grw2prYpKOJhhqOg-14" value="estado: varchar(20)" style="text;html=1;align=center;verticalAlign=middle;resizable=0;points=[];autosize=1;strokeColor=none;fillColor=none;fontSize=14;fontStyle=0" parent="mFw1grw2prYpKOJhhqOg-6" vertex="1">
          <mxGeometry x="38.129999999999995" y="160" width="140" height="30" as="geometry" />
        </mxCell>
        <mxCell id="UCKfF-TqxiNILDHu4gQj-1" value="*id_servicio: int" style="text;html=1;align=center;verticalAlign=middle;resizable=0;points=[];autosize=1;strokeColor=none;fillColor=none;fontSize=14;fontStyle=0" parent="mFw1grw2prYpKOJhhqOg-6" vertex="1">
          <mxGeometry x="48.129999999999995" y="180" width="120" height="30" as="geometry" />
        </mxCell>
        <mxCell id="I6eoGeikimtKOYhnClV8-52" value="Aprobada: boolean" style="text;html=1;align=center;verticalAlign=middle;resizable=0;points=[];autosize=1;strokeColor=none;fillColor=none;" vertex="1" parent="mFw1grw2prYpKOJhhqOg-6">
          <mxGeometry x="49.52999999999997" y="200" width="120" height="30" as="geometry" />
        </mxCell>
        <mxCell id="mFw1grw2prYpKOJhhqOg-52" style="edgeStyle=orthogonalEdgeStyle;rounded=0;orthogonalLoop=1;jettySize=auto;html=1;exitX=0.5;exitY=1;exitDx=0;exitDy=0;endArrow=none;startFill=0;" parent="1" source="mFw1grw2prYpKOJhhqOg-21" target="mFw1grw2prYpKOJhhqOg-46" edge="1">
          <mxGeometry relative="1" as="geometry" />
        </mxCell>
        <mxCell id="mFw1grw2prYpKOJhhqOg-53" value="(1, N)" style="edgeLabel;html=1;align=center;verticalAlign=middle;resizable=0;points=[];" parent="mFw1grw2prYpKOJhhqOg-52" vertex="1" connectable="0">
          <mxGeometry x="0.0191" relative="1" as="geometry">
            <mxPoint as="offset" />
          </mxGeometry>
        </mxCell>
        <mxCell id="mFw1grw2prYpKOJhhqOg-21" value="Formulario" style="swimlane;whiteSpace=wrap;html=1;fontSize=14;startSize=23;" parent="1" vertex="1">
          <mxGeometry x="586" y="440" width="219.07" height="140" as="geometry" />
        </mxCell>
        <mxCell id="mFw1grw2prYpKOJhhqOg-22" value="&lt;b&gt;id_form: int&lt;/b&gt;" style="text;html=1;align=center;verticalAlign=middle;resizable=0;points=[];autosize=1;strokeColor=none;fillColor=none;fontSize=14;fontStyle=4" parent="mFw1grw2prYpKOJhhqOg-21" vertex="1">
          <mxGeometry x="58.129999999999995" y="20" width="100" height="30" as="geometry" />
        </mxCell>
        <mxCell id="mFw1grw2prYpKOJhhqOg-23" value="*id_cita:int" style="text;html=1;align=center;verticalAlign=middle;resizable=0;points=[];autosize=1;strokeColor=none;fillColor=none;fontSize=14;fontStyle=0" parent="mFw1grw2prYpKOJhhqOg-21" vertex="1">
          <mxGeometry x="63.129999999999995" y="40" width="90" height="30" as="geometry" />
        </mxCell>
        <mxCell id="mFw1grw2prYpKOJhhqOg-24" value="examenes_result: varchar(255)" style="text;html=1;align=center;verticalAlign=middle;resizable=0;points=[];autosize=1;strokeColor=none;fillColor=none;fontSize=14;fontStyle=0" parent="mFw1grw2prYpKOJhhqOg-21" vertex="1">
          <mxGeometry x="-1.8699999999999974" y="80" width="220" height="30" as="geometry" />
        </mxCell>
        <mxCell id="mFw1grw2prYpKOJhhqOg-26" value="diagnostico: varchar(255)" style="text;html=1;align=center;verticalAlign=middle;resizable=0;points=[];autosize=1;strokeColor=none;fillColor=none;fontSize=14;fontStyle=0" parent="mFw1grw2prYpKOJhhqOg-21" vertex="1">
          <mxGeometry x="18.129999999999995" y="60" width="180" height="30" as="geometry" />
        </mxCell>
        <mxCell id="mFw1grw2prYpKOJhhqOg-40" value="recomendaciones: varchar(255)" style="text;html=1;align=center;verticalAlign=middle;resizable=0;points=[];autosize=1;strokeColor=none;fillColor=none;fontSize=14;fontStyle=0" parent="mFw1grw2prYpKOJhhqOg-21" vertex="1">
          <mxGeometry x="-1.8700000000000045" y="100" width="220" height="30" as="geometry" />
        </mxCell>
        <mxCell id="mFw1grw2prYpKOJhhqOg-30" value="Historial" style="swimlane;whiteSpace=wrap;html=1;fontSize=14;startSize=23;" parent="1" vertex="1">
          <mxGeometry x="123" y="420" width="219.07" height="200" as="geometry" />
        </mxCell>
        <mxCell id="mFw1grw2prYpKOJhhqOg-31" value="&lt;span&gt;*dpi_paciente: int&lt;/span&gt;" style="text;html=1;align=center;verticalAlign=middle;resizable=0;points=[];autosize=1;strokeColor=none;fillColor=none;fontSize=14;fontStyle=0" parent="mFw1grw2prYpKOJhhqOg-30" vertex="1">
          <mxGeometry x="43.129999999999995" y="20" width="130" height="30" as="geometry" />
        </mxCell>
        <mxCell id="mFw1grw2prYpKOJhhqOg-32" value="*id_servicio: int" style="text;html=1;align=center;verticalAlign=middle;resizable=0;points=[];autosize=1;strokeColor=none;fillColor=none;fontSize=14;fontStyle=0" parent="mFw1grw2prYpKOJhhqOg-30" vertex="1">
          <mxGeometry x="48.129999999999995" y="40" width="120" height="30" as="geometry" />
        </mxCell>
        <mxCell id="mFw1grw2prYpKOJhhqOg-33" value="foto: varchar(255)" style="text;html=1;align=center;verticalAlign=middle;resizable=0;points=[];autosize=1;strokeColor=none;fillColor=none;fontSize=14;fontStyle=0" parent="mFw1grw2prYpKOJhhqOg-30" vertex="1">
          <mxGeometry x="43.13" y="80" width="130" height="30" as="geometry" />
        </mxCell>
        <mxCell id="mFw1grw2prYpKOJhhqOg-34" value="no_aseguradora: varchar(150)" style="text;html=1;align=center;verticalAlign=middle;resizable=0;points=[];autosize=1;strokeColor=none;fillColor=none;fontSize=14;fontStyle=0" parent="mFw1grw2prYpKOJhhqOg-30" vertex="1">
          <mxGeometry x="3.13" y="100" width="210" height="30" as="geometry" />
        </mxCell>
        <mxCell id="mFw1grw2prYpKOJhhqOg-35" value="f_nacimiento: date" style="text;html=1;align=center;verticalAlign=middle;resizable=0;points=[];autosize=1;strokeColor=none;fillColor=none;fontSize=14;fontStyle=0" parent="mFw1grw2prYpKOJhhqOg-30" vertex="1">
          <mxGeometry x="38.129999999999995" y="60" width="140" height="30" as="geometry" />
        </mxCell>
        <mxCell id="mFw1grw2prYpKOJhhqOg-36" value="plan_aseguranza: varchar(150)" style="text;html=1;align=center;verticalAlign=middle;resizable=0;points=[];autosize=1;strokeColor=none;fillColor=none;fontSize=14;fontStyle=0" parent="mFw1grw2prYpKOJhhqOg-30" vertex="1">
          <mxGeometry x="-1.8700000000000045" y="120" width="220" height="30" as="geometry" />
        </mxCell>
        <mxCell id="mFw1grw2prYpKOJhhqOg-37" value="direccion: varchar(150)" style="text;html=1;align=center;verticalAlign=middle;resizable=0;points=[];autosize=1;strokeColor=none;fillColor=none;fontSize=14;fontStyle=0" parent="mFw1grw2prYpKOJhhqOg-30" vertex="1">
          <mxGeometry x="24.069999999999993" y="140" width="170" height="30" as="geometry" />
        </mxCell>
        <mxCell id="mFw1grw2prYpKOJhhqOg-38" value="telefono: int" style="text;html=1;align=center;verticalAlign=middle;resizable=0;points=[];autosize=1;strokeColor=none;fillColor=none;fontSize=14;fontStyle=0" parent="mFw1grw2prYpKOJhhqOg-30" vertex="1">
          <mxGeometry x="58.129999999999995" y="160" width="100" height="30" as="geometry" />
        </mxCell>
        <mxCell id="mFw1grw2prYpKOJhhqOg-63" style="edgeStyle=orthogonalEdgeStyle;rounded=0;orthogonalLoop=1;jettySize=auto;html=1;exitX=0;exitY=0.5;exitDx=0;exitDy=0;entryX=1;entryY=0.5;entryDx=0;entryDy=0;endArrow=none;startFill=0;" parent="1" source="mFw1grw2prYpKOJhhqOg-46" target="mFw1grw2prYpKOJhhqOg-54" edge="1">
          <mxGeometry relative="1" as="geometry" />
        </mxCell>
        <mxCell id="mFw1grw2prYpKOJhhqOg-65" value="(1, 1)" style="edgeLabel;html=1;align=center;verticalAlign=middle;resizable=0;points=[];" parent="mFw1grw2prYpKOJhhqOg-63" vertex="1" connectable="0">
          <mxGeometry x="0.0005" y="1" relative="1" as="geometry">
            <mxPoint as="offset" />
          </mxGeometry>
        </mxCell>
        <mxCell id="mFw1grw2prYpKOJhhqOg-46" value="Medicinas recetadas" style="swimlane;whiteSpace=wrap;html=1;fontSize=14;startSize=23;" parent="1" vertex="1">
          <mxGeometry x="586" y="660" width="219.07" height="90" as="geometry" />
        </mxCell>
        <mxCell id="mFw1grw2prYpKOJhhqOg-47" value="&lt;span&gt;*id_form: int&lt;/span&gt;" style="text;html=1;align=center;verticalAlign=middle;resizable=0;points=[];autosize=1;strokeColor=none;fillColor=none;fontSize=14;fontStyle=0" parent="mFw1grw2prYpKOJhhqOg-46" vertex="1">
          <mxGeometry x="58.129999999999995" y="20" width="100" height="30" as="geometry" />
        </mxCell>
        <mxCell id="mFw1grw2prYpKOJhhqOg-49" value="descripcion: varchar(255)" style="text;html=1;align=center;verticalAlign=middle;resizable=0;points=[];autosize=1;strokeColor=none;fillColor=none;fontSize=14;fontStyle=0" parent="mFw1grw2prYpKOJhhqOg-46" vertex="1">
          <mxGeometry x="18.130000000000003" y="60" width="180" height="30" as="geometry" />
        </mxCell>
        <mxCell id="mFw1grw2prYpKOJhhqOg-50" value="*id_medicina: int" style="text;html=1;align=center;verticalAlign=middle;resizable=0;points=[];autosize=1;strokeColor=none;fillColor=none;fontSize=14;fontStyle=0" parent="mFw1grw2prYpKOJhhqOg-46" vertex="1">
          <mxGeometry x="44.529999999999994" y="40" width="130" height="30" as="geometry" />
        </mxCell>
        <mxCell id="mFw1grw2prYpKOJhhqOg-54" value="Medicina" style="swimlane;whiteSpace=wrap;html=1;fontSize=14;startSize=23;" parent="1" vertex="1">
          <mxGeometry x="300" y="810" width="228.29" height="280" as="geometry" />
        </mxCell>
        <mxCell id="mFw1grw2prYpKOJhhqOg-55" value="&lt;b&gt;id_medicina: int&lt;/b&gt;" style="text;html=1;align=center;verticalAlign=middle;resizable=0;points=[];autosize=1;strokeColor=none;fillColor=none;fontSize=14;fontStyle=4" parent="mFw1grw2prYpKOJhhqOg-54" vertex="1">
          <mxGeometry x="43.129999999999995" y="20" width="130" height="30" as="geometry" />
        </mxCell>
        <mxCell id="mFw1grw2prYpKOJhhqOg-56" value="nombre: varchar(50)" style="text;html=1;align=center;verticalAlign=middle;resizable=0;points=[];autosize=1;strokeColor=none;fillColor=none;fontSize=14;fontStyle=0" parent="mFw1grw2prYpKOJhhqOg-54" vertex="1">
          <mxGeometry x="36.56999999999999" y="40" width="150" height="30" as="geometry" />
        </mxCell>
        <mxCell id="UCKfF-TqxiNILDHu4gQj-22" value="precio: float" style="text;html=1;align=center;verticalAlign=middle;resizable=0;points=[];autosize=1;strokeColor=none;fillColor=none;fontSize=14;fontStyle=0" parent="mFw1grw2prYpKOJhhqOg-54" vertex="1">
          <mxGeometry x="61.56999999999999" y="60" width="100" height="30" as="geometry" />
        </mxCell>
        <mxCell id="UCKfF-TqxiNILDHu4gQj-23" value="categoria: varchar(50)" style="text;html=1;align=center;verticalAlign=middle;resizable=0;points=[];autosize=1;strokeColor=none;fillColor=none;fontSize=14;fontStyle=0" parent="mFw1grw2prYpKOJhhqOg-54" vertex="1">
          <mxGeometry x="31.569999999999997" y="80" width="160" height="30" as="geometry" />
        </mxCell>
        <mxCell id="UCKfF-TqxiNILDHu4gQj-24" value="subcategoria: varchar(50)" style="text;html=1;align=center;verticalAlign=middle;resizable=0;points=[];autosize=1;strokeColor=none;fillColor=none;fontSize=14;fontStyle=0" parent="mFw1grw2prYpKOJhhqOg-54" vertex="1">
          <mxGeometry x="21.569999999999993" y="100" width="180" height="30" as="geometry" />
        </mxCell>
        <mxCell id="UCKfF-TqxiNILDHu4gQj-26" value="ingrediente_activo: varchar(50)" style="text;html=1;align=center;verticalAlign=middle;resizable=0;points=[];autosize=1;strokeColor=none;fillColor=none;fontSize=14;fontStyle=0" parent="mFw1grw2prYpKOJhhqOg-54" vertex="1">
          <mxGeometry x="1.5699999999999932" y="120" width="220" height="30" as="geometry" />
        </mxCell>
        <mxCell id="UCKfF-TqxiNILDHu4gQj-27" value="concentracion: varchar(50)" style="text;html=1;align=center;verticalAlign=middle;resizable=0;points=[];autosize=1;strokeColor=none;fillColor=none;fontSize=14;fontStyle=0" parent="mFw1grw2prYpKOJhhqOg-54" vertex="1">
          <mxGeometry x="16.569999999999993" y="140" width="190" height="30" as="geometry" />
        </mxCell>
        <mxCell id="UCKfF-TqxiNILDHu4gQj-28" value="presentacion: varchar(50)" style="text;html=1;align=center;verticalAlign=middle;resizable=0;points=[];autosize=1;strokeColor=none;fillColor=none;fontSize=14;fontStyle=0" parent="mFw1grw2prYpKOJhhqOg-54" vertex="1">
          <mxGeometry x="21.569999999999993" y="160" width="180" height="30" as="geometry" />
        </mxCell>
        <mxCell id="UCKfF-TqxiNILDHu4gQj-29" value="forma_farmaceutica: varchar(50)" style="text;html=1;align=center;verticalAlign=middle;resizable=0;points=[];autosize=1;strokeColor=none;fillColor=none;fontSize=14;fontStyle=0" parent="mFw1grw2prYpKOJhhqOg-54" vertex="1">
          <mxGeometry x="-3.430000000000007" y="180" width="230" height="30" as="geometry" />
        </mxCell>
        <mxCell id="UCKfF-TqxiNILDHu4gQj-30" value="dosis: varchar(255)" style="text;html=1;align=center;verticalAlign=middle;resizable=0;points=[];autosize=1;strokeColor=none;fillColor=none;fontSize=14;fontStyle=0" parent="mFw1grw2prYpKOJhhqOg-54" vertex="1">
          <mxGeometry x="43.29000000000002" y="200" width="140" height="30" as="geometry" />
        </mxCell>
        <mxCell id="UCKfF-TqxiNILDHu4gQj-31" value="frecuencia: varchar(100)" style="text;html=1;align=center;verticalAlign=middle;resizable=0;points=[];autosize=1;strokeColor=none;fillColor=none;fontSize=14;fontStyle=0" parent="mFw1grw2prYpKOJhhqOg-54" vertex="1">
          <mxGeometry x="24.140000000000033" y="220" width="180" height="30" as="geometry" />
        </mxCell>
        <mxCell id="UCKfF-TqxiNILDHu4gQj-32" value="duracion: varchar(100)" style="text;html=1;align=center;verticalAlign=middle;resizable=0;points=[];autosize=1;strokeColor=none;fillColor=none;fontSize=14;fontStyle=0" parent="mFw1grw2prYpKOJhhqOg-54" vertex="1">
          <mxGeometry x="34.14000000000004" y="240" width="160" height="30" as="geometry" />
        </mxCell>
        <mxCell id="UCKfF-TqxiNILDHu4gQj-13" style="edgeStyle=orthogonalEdgeStyle;rounded=0;orthogonalLoop=1;jettySize=auto;html=1;exitX=0.5;exitY=1;exitDx=0;exitDy=0;endArrow=none;startFill=0;" parent="1" source="mFw1grw2prYpKOJhhqOg-68" target="mFw1grw2prYpKOJhhqOg-78" edge="1">
          <mxGeometry relative="1" as="geometry" />
        </mxCell>
        <mxCell id="UCKfF-TqxiNILDHu4gQj-15" value="(1, N)" style="edgeLabel;html=1;align=center;verticalAlign=middle;resizable=0;points=[];" parent="UCKfF-TqxiNILDHu4gQj-13" vertex="1" connectable="0">
          <mxGeometry x="-0.1761" y="3" relative="1" as="geometry">
            <mxPoint as="offset" />
          </mxGeometry>
        </mxCell>
        <mxCell id="UCKfF-TqxiNILDHu4gQj-18" style="edgeStyle=orthogonalEdgeStyle;rounded=0;orthogonalLoop=1;jettySize=auto;html=1;exitX=1;exitY=0.5;exitDx=0;exitDy=0;entryX=1;entryY=0.5;entryDx=0;entryDy=0;endArrow=none;startFill=0;" parent="1" source="mFw1grw2prYpKOJhhqOg-68" target="mFw1grw2prYpKOJhhqOg-6" edge="1">
          <mxGeometry relative="1" as="geometry" />
        </mxCell>
        <mxCell id="mFw1grw2prYpKOJhhqOg-68" value="Doctor" style="swimlane;whiteSpace=wrap;html=1;fontSize=14;" parent="1" vertex="1">
          <mxGeometry x="30" y="670" width="219.07" height="200" as="geometry" />
        </mxCell>
        <mxCell id="mFw1grw2prYpKOJhhqOg-69" value="&lt;b&gt;id_doctor: int&lt;/b&gt;" style="text;html=1;align=center;verticalAlign=middle;resizable=0;points=[];autosize=1;strokeColor=none;fillColor=none;fontSize=14;fontStyle=4" parent="mFw1grw2prYpKOJhhqOg-68" vertex="1">
          <mxGeometry x="53.129999999999995" y="20" width="110" height="30" as="geometry" />
        </mxCell>
        <mxCell id="mFw1grw2prYpKOJhhqOg-70" value="nombre: varchar(50)" style="text;html=1;align=center;verticalAlign=middle;resizable=0;points=[];autosize=1;strokeColor=none;fillColor=none;fontSize=14;fontStyle=0" parent="mFw1grw2prYpKOJhhqOg-68" vertex="1">
          <mxGeometry x="33.129999999999995" y="40" width="150" height="30" as="geometry" />
        </mxCell>
        <mxCell id="mFw1grw2prYpKOJhhqOg-71" value="especialidad: varchar(100)" style="text;html=1;align=center;verticalAlign=middle;resizable=0;points=[];autosize=1;strokeColor=none;fillColor=none;fontSize=14;fontStyle=0" parent="mFw1grw2prYpKOJhhqOg-68" vertex="1">
          <mxGeometry x="13.130000000000003" y="80" width="190" height="30" as="geometry" />
        </mxCell>
        <mxCell id="mFw1grw2prYpKOJhhqOg-72" value="no_colegiado: varchar(100)" style="text;html=1;align=center;verticalAlign=middle;resizable=0;points=[];autosize=1;strokeColor=none;fillColor=none;fontSize=14;fontStyle=0" parent="mFw1grw2prYpKOJhhqOg-68" vertex="1">
          <mxGeometry x="13.129999999999999" y="100" width="190" height="30" as="geometry" />
        </mxCell>
        <mxCell id="mFw1grw2prYpKOJhhqOg-73" value="f_nacimiento: date" style="text;html=1;align=center;verticalAlign=middle;resizable=0;points=[];autosize=1;strokeColor=none;fillColor=none;fontSize=14;fontStyle=0" parent="mFw1grw2prYpKOJhhqOg-68" vertex="1">
          <mxGeometry x="38.129999999999995" y="60" width="140" height="30" as="geometry" />
        </mxCell>
        <mxCell id="mFw1grw2prYpKOJhhqOg-74" value="foto: varchar(255)" style="text;html=1;align=center;verticalAlign=middle;resizable=0;points=[];autosize=1;strokeColor=none;fillColor=none;fontSize=14;fontStyle=0" parent="mFw1grw2prYpKOJhhqOg-68" vertex="1">
          <mxGeometry x="43.129999999999995" y="120" width="130" height="30" as="geometry" />
        </mxCell>
        <mxCell id="mFw1grw2prYpKOJhhqOg-75" value="direccion: varchar(150)" style="text;html=1;align=center;verticalAlign=middle;resizable=0;points=[];autosize=1;strokeColor=none;fillColor=none;fontSize=14;fontStyle=0" parent="mFw1grw2prYpKOJhhqOg-68" vertex="1">
          <mxGeometry x="24.069999999999993" y="140" width="170" height="30" as="geometry" />
        </mxCell>
        <mxCell id="mFw1grw2prYpKOJhhqOg-76" value="telefono: int" style="text;html=1;align=center;verticalAlign=middle;resizable=0;points=[];autosize=1;strokeColor=none;fillColor=none;fontSize=14;fontStyle=0" parent="mFw1grw2prYpKOJhhqOg-68" vertex="1">
          <mxGeometry x="58.129999999999995" y="160" width="100" height="30" as="geometry" />
        </mxCell>
        <mxCell id="mFw1grw2prYpKOJhhqOg-78" value="Titulo" style="swimlane;whiteSpace=wrap;html=1;fontSize=14;" parent="1" vertex="1">
          <mxGeometry x="30" y="950" width="219.07" height="130" as="geometry" />
        </mxCell>
        <mxCell id="mFw1grw2prYpKOJhhqOg-79" value="*id_doctor: int" style="text;html=1;align=center;verticalAlign=middle;resizable=0;points=[];autosize=1;strokeColor=none;fillColor=none;fontSize=14;fontStyle=0" parent="mFw1grw2prYpKOJhhqOg-78" vertex="1">
          <mxGeometry x="53.129999999999995" y="20" width="110" height="30" as="geometry" />
        </mxCell>
        <mxCell id="mFw1grw2prYpKOJhhqOg-80" value="titulo: varchar(100)" style="text;html=1;align=center;verticalAlign=middle;resizable=0;points=[];autosize=1;strokeColor=none;fillColor=none;fontSize=14;fontStyle=0" parent="mFw1grw2prYpKOJhhqOg-78" vertex="1">
          <mxGeometry x="38.129999999999995" y="40" width="140" height="30" as="geometry" />
        </mxCell>
        <mxCell id="mFw1grw2prYpKOJhhqOg-81" value="foto: varchar(255)" style="text;html=1;align=center;verticalAlign=middle;resizable=0;points=[];autosize=1;strokeColor=none;fillColor=none;fontSize=14;fontStyle=0" parent="mFw1grw2prYpKOJhhqOg-78" vertex="1">
          <mxGeometry x="43.13" y="80" width="130" height="30" as="geometry" />
        </mxCell>
        <mxCell id="mFw1grw2prYpKOJhhqOg-82" value="no_certificado: varchar(100)" style="text;html=1;align=center;verticalAlign=middle;resizable=0;points=[];autosize=1;strokeColor=none;fillColor=none;fontSize=14;fontStyle=0" parent="mFw1grw2prYpKOJhhqOg-78" vertex="1">
          <mxGeometry x="8.129999999999999" y="100" width="200" height="30" as="geometry" />
        </mxCell>
        <mxCell id="mFw1grw2prYpKOJhhqOg-83" value="instituto: varchar(50)" style="text;html=1;align=center;verticalAlign=middle;resizable=0;points=[];autosize=1;strokeColor=none;fillColor=none;fontSize=14;fontStyle=0" parent="mFw1grw2prYpKOJhhqOg-78" vertex="1">
          <mxGeometry x="33.129999999999995" y="60" width="150" height="30" as="geometry" />
        </mxCell>
        <mxCell id="UCKfF-TqxiNILDHu4gQj-3" value="Servicios" style="swimlane;whiteSpace=wrap;html=1;fontSize=14;" parent="1" vertex="1">
          <mxGeometry x="910" y="100" width="219.07" height="160" as="geometry" />
        </mxCell>
        <mxCell id="UCKfF-TqxiNILDHu4gQj-4" value="&lt;b&gt;id_servicio: int&lt;/b&gt;" style="text;html=1;align=center;verticalAlign=middle;resizable=0;points=[];autosize=1;strokeColor=none;fillColor=none;fontSize=14;fontStyle=4" parent="UCKfF-TqxiNILDHu4gQj-3" vertex="1">
          <mxGeometry x="48.129999999999995" y="20" width="120" height="30" as="geometry" />
        </mxCell>
        <mxCell id="UCKfF-TqxiNILDHu4gQj-5" value="nombre: varchar(100)" style="text;html=1;align=center;verticalAlign=middle;resizable=0;points=[];autosize=1;strokeColor=none;fillColor=none;fontSize=14;fontStyle=0" parent="UCKfF-TqxiNILDHu4gQj-3" vertex="1">
          <mxGeometry x="28.13" y="40" width="160" height="30" as="geometry" />
        </mxCell>
        <mxCell id="UCKfF-TqxiNILDHu4gQj-6" value="subcategoria: varchar(50)" style="text;html=1;align=center;verticalAlign=middle;resizable=0;points=[];autosize=1;strokeColor=none;fillColor=none;fontSize=14;fontStyle=0" parent="UCKfF-TqxiNILDHu4gQj-3" vertex="1">
          <mxGeometry x="18.130000000000003" y="80" width="180" height="30" as="geometry" />
        </mxCell>
        <mxCell id="UCKfF-TqxiNILDHu4gQj-7" value="costo: float" style="text;html=1;align=center;verticalAlign=middle;resizable=0;points=[];autosize=1;strokeColor=none;fillColor=none;fontSize=14;fontStyle=0" parent="UCKfF-TqxiNILDHu4gQj-3" vertex="1">
          <mxGeometry x="63.13" y="100" width="90" height="30" as="geometry" />
        </mxCell>
        <mxCell id="UCKfF-TqxiNILDHu4gQj-8" value="categoria: varchar(50)" style="text;html=1;align=center;verticalAlign=middle;resizable=0;points=[];autosize=1;strokeColor=none;fillColor=none;fontSize=14;fontStyle=0" parent="UCKfF-TqxiNILDHu4gQj-3" vertex="1">
          <mxGeometry x="28.129999999999995" y="60" width="160" height="30" as="geometry" />
        </mxCell>
        <mxCell id="UCKfF-TqxiNILDHu4gQj-21" value="*id_doctor: int" style="text;html=1;align=center;verticalAlign=middle;resizable=0;points=[];autosize=1;strokeColor=none;fillColor=none;fontSize=14;fontStyle=0" parent="UCKfF-TqxiNILDHu4gQj-3" vertex="1">
          <mxGeometry x="53.129999999999995" y="120" width="110" height="30" as="geometry" />
        </mxCell>
        <mxCell id="I6eoGeikimtKOYhnClV8-13" style="edgeStyle=orthogonalEdgeStyle;rounded=0;orthogonalLoop=1;jettySize=auto;html=1;exitX=1;exitY=0.5;exitDx=0;exitDy=0;" edge="1" parent="1" source="I6eoGeikimtKOYhnClV8-1">
          <mxGeometry relative="1" as="geometry">
            <mxPoint x="120" y="210" as="targetPoint" />
          </mxGeometry>
        </mxCell>
        <mxCell id="I6eoGeikimtKOYhnClV8-15" value="(1,N)" style="edgeLabel;html=1;align=center;verticalAlign=middle;resizable=0;points=[];" vertex="1" connectable="0" parent="I6eoGeikimtKOYhnClV8-13">
          <mxGeometry x="0.5841" y="-1" relative="1" as="geometry">
            <mxPoint as="offset" />
          </mxGeometry>
        </mxCell>
        <mxCell id="I6eoGeikimtKOYhnClV8-14" style="edgeStyle=orthogonalEdgeStyle;rounded=0;orthogonalLoop=1;jettySize=auto;html=1;" edge="1" parent="1">
          <mxGeometry relative="1" as="geometry">
            <mxPoint x="-270" y="260" as="sourcePoint" />
            <mxPoint x="30" y="708" as="targetPoint" />
            <Array as="points">
              <mxPoint x="-90" y="260.5" />
              <mxPoint x="-90" y="707.5" />
              <mxPoint y="707.5" />
            </Array>
          </mxGeometry>
        </mxCell>
        <mxCell id="I6eoGeikimtKOYhnClV8-16" value="(1,N)" style="edgeLabel;html=1;align=center;verticalAlign=middle;resizable=0;points=[];" vertex="1" connectable="0" parent="I6eoGeikimtKOYhnClV8-14">
          <mxGeometry x="0.073" y="2" relative="1" as="geometry">
            <mxPoint y="1" as="offset" />
          </mxGeometry>
        </mxCell>
        <mxCell id="I6eoGeikimtKOYhnClV8-38" style="edgeStyle=orthogonalEdgeStyle;rounded=0;orthogonalLoop=1;jettySize=auto;html=1;exitX=0.5;exitY=0;exitDx=0;exitDy=0;entryX=0;entryY=0.5;entryDx=0;entryDy=0;" edge="1" parent="1" source="I6eoGeikimtKOYhnClV8-1" target="I6eoGeikimtKOYhnClV8-29">
          <mxGeometry relative="1" as="geometry" />
        </mxCell>
        <mxCell id="I6eoGeikimtKOYhnClV8-39" value="(1,N)" style="edgeLabel;html=1;align=center;verticalAlign=middle;resizable=0;points=[];" vertex="1" connectable="0" parent="I6eoGeikimtKOYhnClV8-38">
          <mxGeometry x="-0.1208" y="4" relative="1" as="geometry">
            <mxPoint as="offset" />
          </mxGeometry>
        </mxCell>
        <mxCell id="I6eoGeikimtKOYhnClV8-1" value="Usuarios" style="swimlane;whiteSpace=wrap;html=1;fontSize=14;" vertex="1" parent="1">
          <mxGeometry x="-530" y="140" width="260" height="265" as="geometry" />
        </mxCell>
        <mxCell id="I6eoGeikimtKOYhnClV8-2" value="&lt;b&gt;id_Usuarios: int&lt;/b&gt;" style="text;html=1;align=center;verticalAlign=middle;resizable=0;points=[];autosize=1;strokeColor=none;fillColor=none;fontSize=14;fontStyle=4" vertex="1" parent="I6eoGeikimtKOYhnClV8-1">
          <mxGeometry x="65" y="20" width="130" height="30" as="geometry" />
        </mxCell>
        <mxCell id="I6eoGeikimtKOYhnClV8-3" value="nombre: varchar(100)" style="text;html=1;align=center;verticalAlign=middle;resizable=0;points=[];autosize=1;strokeColor=none;fillColor=none;fontSize=14;fontStyle=0" vertex="1" parent="I6eoGeikimtKOYhnClV8-1">
          <mxGeometry x="49.06" y="40" width="160" height="30" as="geometry" />
        </mxCell>
        <mxCell id="I6eoGeikimtKOYhnClV8-4" value="password VARCHAR(255)" style="text;html=1;align=center;verticalAlign=middle;resizable=0;points=[];autosize=1;strokeColor=none;fillColor=none;fontSize=14;fontStyle=0" vertex="1" parent="I6eoGeikimtKOYhnClV8-1">
          <mxGeometry x="34.06" y="80" width="190" height="30" as="geometry" />
        </mxCell>
        <mxCell id="I6eoGeikimtKOYhnClV8-5" value="role ENUM" style="text;html=1;align=center;verticalAlign=middle;resizable=0;points=[];autosize=1;strokeColor=none;fillColor=none;fontSize=14;fontStyle=0" vertex="1" parent="I6eoGeikimtKOYhnClV8-1">
          <mxGeometry x="84.05999999999999" y="100" width="90" height="30" as="geometry" />
        </mxCell>
        <mxCell id="I6eoGeikimtKOYhnClV8-6" value="email: VARCHAR(100) " style="text;html=1;align=center;verticalAlign=middle;resizable=0;points=[];autosize=1;strokeColor=none;fillColor=none;fontSize=14;fontStyle=0" vertex="1" parent="I6eoGeikimtKOYhnClV8-1">
          <mxGeometry x="44.06" y="60" width="170" height="30" as="geometry" />
        </mxCell>
        <mxCell id="I6eoGeikimtKOYhnClV8-7" value="plan_aseguranza: varchar(150)" style="text;html=1;align=center;verticalAlign=middle;resizable=0;points=[];autosize=1;strokeColor=none;fillColor=none;fontSize=14;fontStyle=0" vertex="1" parent="I6eoGeikimtKOYhnClV8-1">
          <mxGeometry x="19.059999999999995" y="120" width="220" height="30" as="geometry" />
        </mxCell>
        <mxCell id="I6eoGeikimtKOYhnClV8-8" value="&amp;nbsp;active BOOLEAN" style="text;html=1;align=center;verticalAlign=middle;resizable=0;points=[];autosize=1;strokeColor=none;fillColor=none;fontSize=14;fontStyle=0" vertex="1" parent="I6eoGeikimtKOYhnClV8-1">
          <mxGeometry x="60" y="140" width="140" height="30" as="geometry" />
        </mxCell>
        <mxCell id="I6eoGeikimtKOYhnClV8-9" value="created_at DATETIME" style="text;html=1;align=center;verticalAlign=middle;resizable=0;points=[];autosize=1;strokeColor=none;fillColor=none;fontSize=14;fontStyle=0" vertex="1" parent="I6eoGeikimtKOYhnClV8-1">
          <mxGeometry x="49.06" y="160" width="160" height="30" as="geometry" />
        </mxCell>
        <mxCell id="I6eoGeikimtKOYhnClV8-11" value="&lt;font style=&quot;font-size: 18px;&quot;&gt;dpi_paciente:int&lt;/font&gt;" style="text;html=1;align=center;verticalAlign=middle;resizable=0;points=[];autosize=1;strokeColor=none;fillColor=none;" vertex="1" parent="I6eoGeikimtKOYhnClV8-1">
          <mxGeometry x="54.06" y="185" width="150" height="40" as="geometry" />
        </mxCell>
        <mxCell id="I6eoGeikimtKOYhnClV8-12" value="&lt;div&gt;&lt;font style=&quot;font-size: 16px;&quot;&gt;id_doctor&lt;/font&gt;&lt;/div&gt;&lt;div&gt;&lt;font style=&quot;font-size: 16px;&quot;&gt;id_administrador&lt;/font&gt;&lt;/div&gt;" style="text;html=1;align=center;verticalAlign=middle;resizable=0;points=[];autosize=1;strokeColor=none;fillColor=none;" vertex="1" parent="I6eoGeikimtKOYhnClV8-1">
          <mxGeometry x="60" y="215" width="140" height="50" as="geometry" />
        </mxCell>
        <mxCell id="I6eoGeikimtKOYhnClV8-17" value="Administrador" style="swimlane;whiteSpace=wrap;html=1;fontSize=14;startSize=23;" vertex="1" parent="1">
          <mxGeometry x="-509.54" y="600" width="219.07" height="180" as="geometry" />
        </mxCell>
        <mxCell id="I6eoGeikimtKOYhnClV8-18" value="&lt;span&gt;*id_administrador: int&lt;/span&gt;" style="text;html=1;align=center;verticalAlign=middle;resizable=0;points=[];autosize=1;strokeColor=none;fillColor=none;fontSize=14;fontStyle=0" vertex="1" parent="I6eoGeikimtKOYhnClV8-17">
          <mxGeometry x="28.129999999999995" y="20" width="160" height="30" as="geometry" />
        </mxCell>
        <mxCell id="I6eoGeikimtKOYhnClV8-19" value="nombre: varchar(100)" style="text;html=1;align=center;verticalAlign=middle;resizable=0;points=[];autosize=1;strokeColor=none;fillColor=none;fontSize=14;fontStyle=0" vertex="1" parent="I6eoGeikimtKOYhnClV8-17">
          <mxGeometry x="28.129999999999995" y="40" width="160" height="30" as="geometry" />
        </mxCell>
        <mxCell id="I6eoGeikimtKOYhnClV8-20" value="foto: varchar(255)" style="text;html=1;align=center;verticalAlign=middle;resizable=0;points=[];autosize=1;strokeColor=none;fillColor=none;fontSize=14;fontStyle=0" vertex="1" parent="I6eoGeikimtKOYhnClV8-17">
          <mxGeometry x="43.13" y="80" width="130" height="30" as="geometry" />
        </mxCell>
        <mxCell id="I6eoGeikimtKOYhnClV8-22" value="f_nacimiento: date" style="text;html=1;align=center;verticalAlign=middle;resizable=0;points=[];autosize=1;strokeColor=none;fillColor=none;fontSize=14;fontStyle=0" vertex="1" parent="I6eoGeikimtKOYhnClV8-17">
          <mxGeometry x="38.129999999999995" y="60" width="140" height="30" as="geometry" />
        </mxCell>
        <mxCell id="I6eoGeikimtKOYhnClV8-24" value="direccion: varchar(150)" style="text;html=1;align=center;verticalAlign=middle;resizable=0;points=[];autosize=1;strokeColor=none;fillColor=none;fontSize=14;fontStyle=0" vertex="1" parent="I6eoGeikimtKOYhnClV8-17">
          <mxGeometry x="24.539999999999992" y="110" width="170" height="30" as="geometry" />
        </mxCell>
        <mxCell id="I6eoGeikimtKOYhnClV8-25" value="telefono: int" style="text;html=1;align=center;verticalAlign=middle;resizable=0;points=[];autosize=1;strokeColor=none;fillColor=none;fontSize=14;fontStyle=0" vertex="1" parent="I6eoGeikimtKOYhnClV8-17">
          <mxGeometry x="58.129999999999995" y="140" width="100" height="30" as="geometry" />
        </mxCell>
        <mxCell id="I6eoGeikimtKOYhnClV8-27" style="edgeStyle=orthogonalEdgeStyle;rounded=0;orthogonalLoop=1;jettySize=auto;html=1;entryX=0.5;entryY=0;entryDx=0;entryDy=0;" edge="1" parent="1" source="I6eoGeikimtKOYhnClV8-12" target="I6eoGeikimtKOYhnClV8-17">
          <mxGeometry relative="1" as="geometry" />
        </mxCell>
        <mxCell id="I6eoGeikimtKOYhnClV8-28" value="(1,N)" style="edgeLabel;html=1;align=center;verticalAlign=middle;resizable=0;points=[];" vertex="1" connectable="0" parent="I6eoGeikimtKOYhnClV8-27">
          <mxGeometry x="-0.1487" y="-3" relative="1" as="geometry">
            <mxPoint as="offset" />
          </mxGeometry>
        </mxCell>
        <mxCell id="I6eoGeikimtKOYhnClV8-49" style="edgeStyle=orthogonalEdgeStyle;rounded=0;orthogonalLoop=1;jettySize=auto;html=1;" edge="1" parent="1" source="I6eoGeikimtKOYhnClV8-29">
          <mxGeometry relative="1" as="geometry">
            <mxPoint x="240" y="-130" as="targetPoint" />
          </mxGeometry>
        </mxCell>
        <mxCell id="I6eoGeikimtKOYhnClV8-50" value="(1,N)" style="edgeLabel;html=1;align=center;verticalAlign=middle;resizable=0;points=[];" vertex="1" connectable="0" parent="I6eoGeikimtKOYhnClV8-49">
          <mxGeometry x="-0.053" y="3" relative="1" as="geometry">
            <mxPoint as="offset" />
          </mxGeometry>
        </mxCell>
        <mxCell id="I6eoGeikimtKOYhnClV8-29" value="Empleado_Seguro" style="swimlane;whiteSpace=wrap;html=1;fontSize=14;" vertex="1" parent="1">
          <mxGeometry x="-240" y="-240" width="220" height="160" as="geometry" />
        </mxCell>
        <mxCell id="I6eoGeikimtKOYhnClV8-30" value="&lt;b&gt;id_ES&lt;/b&gt;" style="text;html=1;align=center;verticalAlign=middle;resizable=0;points=[];autosize=1;strokeColor=none;fillColor=none;fontSize=14;fontStyle=4" vertex="1" parent="I6eoGeikimtKOYhnClV8-29">
          <mxGeometry x="78.13" y="20" width="60" height="30" as="geometry" />
        </mxCell>
        <mxCell id="I6eoGeikimtKOYhnClV8-31" value="nombre: varchar(100)" style="text;html=1;align=center;verticalAlign=middle;resizable=0;points=[];autosize=1;strokeColor=none;fillColor=none;fontSize=14;fontStyle=0" vertex="1" parent="I6eoGeikimtKOYhnClV8-29">
          <mxGeometry x="28.13" y="40" width="160" height="30" as="geometry" />
        </mxCell>
        <mxCell id="I6eoGeikimtKOYhnClV8-32" value="foto: varchar(255)" style="text;html=1;align=center;verticalAlign=middle;resizable=0;points=[];autosize=1;strokeColor=none;fillColor=none;fontSize=14;fontStyle=0" vertex="1" parent="I6eoGeikimtKOYhnClV8-29">
          <mxGeometry x="43.13" y="80" width="130" height="30" as="geometry" />
        </mxCell>
        <mxCell id="I6eoGeikimtKOYhnClV8-34" value="f_nacimiento: date" style="text;html=1;align=center;verticalAlign=middle;resizable=0;points=[];autosize=1;strokeColor=none;fillColor=none;fontSize=14;fontStyle=0" vertex="1" parent="I6eoGeikimtKOYhnClV8-29">
          <mxGeometry x="38.129999999999995" y="60" width="140" height="30" as="geometry" />
        </mxCell>
        <mxCell id="I6eoGeikimtKOYhnClV8-36" value="direccion: varchar(150)" style="text;html=1;align=center;verticalAlign=middle;resizable=0;points=[];autosize=1;strokeColor=none;fillColor=none;fontSize=14;fontStyle=0" vertex="1" parent="I6eoGeikimtKOYhnClV8-29">
          <mxGeometry x="24.529999999999994" y="110" width="170" height="30" as="geometry" />
        </mxCell>
        <mxCell id="I6eoGeikimtKOYhnClV8-37" value="telefono: int" style="text;html=1;align=center;verticalAlign=middle;resizable=0;points=[];autosize=1;strokeColor=none;fillColor=none;fontSize=14;fontStyle=0" vertex="1" parent="I6eoGeikimtKOYhnClV8-29">
          <mxGeometry x="59.529999999999994" y="130" width="100" height="30" as="geometry" />
        </mxCell>
        <mxCell id="I6eoGeikimtKOYhnClV8-40" value="Aprobaciones" style="swimlane;whiteSpace=wrap;html=1;fontSize=14;" vertex="1" parent="1">
          <mxGeometry x="240" y="-200" width="219.07" height="130" as="geometry" />
        </mxCell>
        <mxCell id="I6eoGeikimtKOYhnClV8-41" value="&lt;b&gt;id_aprobaciones: int&lt;/b&gt;" style="text;html=1;align=center;verticalAlign=middle;resizable=0;points=[];autosize=1;strokeColor=none;fillColor=none;fontSize=14;fontStyle=4" vertex="1" parent="I6eoGeikimtKOYhnClV8-40">
          <mxGeometry x="28.129999999999995" y="20" width="160" height="30" as="geometry" />
        </mxCell>
        <mxCell id="I6eoGeikimtKOYhnClV8-42" value="Consulta: varchar(100)" style="text;html=1;align=center;verticalAlign=middle;resizable=0;points=[];autosize=1;strokeColor=none;fillColor=none;fontSize=14;fontStyle=0" vertex="1" parent="I6eoGeikimtKOYhnClV8-40">
          <mxGeometry x="23.13" y="40" width="170" height="30" as="geometry" />
        </mxCell>
        <mxCell id="I6eoGeikimtKOYhnClV8-43" value="estado: boolean" style="text;html=1;align=center;verticalAlign=middle;resizable=0;points=[];autosize=1;strokeColor=none;fillColor=none;fontSize=14;fontStyle=0" vertex="1" parent="I6eoGeikimtKOYhnClV8-40">
          <mxGeometry x="48.13" y="80" width="120" height="30" as="geometry" />
        </mxCell>
        <mxCell id="I6eoGeikimtKOYhnClV8-45" value="nombre:varchar(100)" style="text;html=1;align=center;verticalAlign=middle;resizable=0;points=[];autosize=1;strokeColor=none;fillColor=none;fontSize=14;fontStyle=0" vertex="1" parent="I6eoGeikimtKOYhnClV8-40">
          <mxGeometry x="33.129999999999995" y="60" width="150" height="30" as="geometry" />
        </mxCell>
        <mxCell id="I6eoGeikimtKOYhnClV8-53" value="Aprobada: boolean" style="text;html=1;align=center;verticalAlign=middle;resizable=0;points=[];autosize=1;strokeColor=none;fillColor=none;" vertex="1" parent="I6eoGeikimtKOYhnClV8-40">
          <mxGeometry x="43.129999999999995" y="100" width="120" height="30" as="geometry" />
        </mxCell>
        <mxCell id="I6eoGeikimtKOYhnClV8-54" value="Clientes_Seguro" style="swimlane;whiteSpace=wrap;html=1;fontSize=14;" vertex="1" parent="1">
          <mxGeometry x="240" y="-40" width="219.07" height="130" as="geometry" />
        </mxCell>
        <mxCell id="I6eoGeikimtKOYhnClV8-55" value="&lt;b&gt;id_cs: int&lt;/b&gt;" style="text;html=1;align=center;verticalAlign=middle;resizable=0;points=[];autosize=1;strokeColor=none;fillColor=none;fontSize=14;fontStyle=4" vertex="1" parent="I6eoGeikimtKOYhnClV8-54">
          <mxGeometry x="68.13" y="20" width="80" height="30" as="geometry" />
        </mxCell>
        <mxCell id="I6eoGeikimtKOYhnClV8-56" value="Pagado: boolean" style="text;html=1;align=center;verticalAlign=middle;resizable=0;points=[];autosize=1;strokeColor=none;fillColor=none;fontSize=14;fontStyle=0" vertex="1" parent="I6eoGeikimtKOYhnClV8-54">
          <mxGeometry x="43.129999999999995" y="40" width="130" height="30" as="geometry" />
        </mxCell>
        <mxCell id="I6eoGeikimtKOYhnClV8-58" value="Fecha_de_vencimiento:date" style="text;html=1;align=center;verticalAlign=middle;resizable=0;points=[];autosize=1;strokeColor=none;fillColor=none;fontSize=14;fontStyle=0" vertex="1" parent="I6eoGeikimtKOYhnClV8-54">
          <mxGeometry x="8.129999999999995" y="60" width="200" height="30" as="geometry" />
        </mxCell>
        <mxCell id="I6eoGeikimtKOYhnClV8-60" style="edgeStyle=orthogonalEdgeStyle;rounded=0;orthogonalLoop=1;jettySize=auto;html=1;entryX=0;entryY=0.5;entryDx=0;entryDy=0;exitX=0.5;exitY=1;exitDx=0;exitDy=0;" edge="1" parent="1" source="I6eoGeikimtKOYhnClV8-29" target="I6eoGeikimtKOYhnClV8-54">
          <mxGeometry relative="1" as="geometry">
            <Array as="points">
              <mxPoint x="-130" y="-50" />
              <mxPoint x="80" y="-50" />
              <mxPoint x="80" y="25" />
            </Array>
          </mxGeometry>
        </mxCell>
        <mxCell id="I6eoGeikimtKOYhnClV8-61" value="(1,N)" style="edgeLabel;html=1;align=center;verticalAlign=middle;resizable=0;points=[];" vertex="1" connectable="0" parent="I6eoGeikimtKOYhnClV8-60">
          <mxGeometry x="0.0969" relative="1" as="geometry">
            <mxPoint as="offset" />
          </mxGeometry>
        </mxCell>
      </root>
    </mxGraphModel>
  </diagram>
</mxfile>
